<svg xmlns="http://www.w3.org/2000/svg" version="1.1" xmlns:xlink="http://www.w3.org/1999/xlink" xmlns:svgjs="http://svgjs.com/svgjs" width="512" height="512" x="0" y="0" viewBox="0 0 300 300" style="enable-background:new 0 0 512 512" xml:space="preserve" class=""><g><linearGradient xmlns="http://www.w3.org/2000/svg" id="SVGID_1_" gradientUnits="userSpaceOnUse" x1="64.68" x2="243.32" y1="231.555" y2="52.915"><stop offset="0" stop-color="#107eff"></stop><stop offset="1" stop-color="#8f16ff"></stop></linearGradient><g xmlns="http://www.w3.org/2000/svg"><path d="m219.471 40c0-2.502 2.028-4.53 4.529-4.53s4.529 2.028 4.529 4.53c0 2.501-2.028 4.529-4.529 4.529s-4.529-2.028-4.529-4.529zm-127.471 4.529c2.501 0 4.529-2.028 4.529-4.529 0-2.502-2.028-4.53-4.529-4.53s-4.529 2.028-4.529 4.53c0 2.501 2.028 4.529 4.529 4.529zm-44 64c2.501 0 4.529-2.028 4.529-4.529 0-2.502-2.028-4.53-4.529-4.53s-4.529 2.028-4.529 4.53c0 2.501 2.028 4.529 4.529 4.529zm220 41.471c0 14.336-11.664 26-26 26-9.82 0-18.59-5.412-23.043-14h-35.058c-.423 1.191-.906 2.35-1.447 3.48l24.794 24.796c9.227-2.934 19.25-.549 26.191 6.395 4.906 4.902 7.605 11.432 7.605 18.385 0 6.951-2.699 13.48-7.605 18.383-4.902 4.904-11.43 7.605-18.383 7.605s-13.484-2.701-18.387-7.605c-6.945-6.945-9.316-16.973-6.395-26.193l-24.791-24.793c-1.131.542-2.291 1.025-3.482 1.448v35.055c8.59 4.453 14 13.227 14 23.045 0 14.336-11.664 26-26 26s-26-11.664-26-26c0-9.818 5.41-18.592 14-23.045v-35.056c-1.191-.423-2.352-.907-3.482-1.448l-24.791 24.793c2.922 9.221.551 19.248-6.395 26.193-4.902 4.904-11.434 7.605-18.387 7.605s-13.48-2.701-18.383-7.605c-4.906-4.902-7.605-11.432-7.605-18.383 0-6.953 2.699-13.482 7.605-18.385 6.938-6.943 16.961-9.328 26.191-6.395l24.794-24.796c-.542-1.13-1.024-2.289-1.447-3.48h-35.056c-4.453 8.589-13.223 14.001-23.043 14.001-14.336 0-26-11.664-26-26s11.664-26 26-26c9.82 0 18.59 5.412 23.043 14h35.058c.423-1.192.907-2.352 1.448-3.482l-24.795-24.793c-9.23 2.93-19.254.547-26.191-6.395-4.906-4.904-7.605-11.434-7.605-18.385s2.699-13.48 7.605-18.383c4.902-4.904 11.43-7.605 18.383-7.605s13.484 2.701 18.387 7.605c6.945 6.945 9.316 16.973 6.395 26.193l24.791 24.793c1.131-.542 2.291-1.025 3.482-1.448v-35.057c-8.591-4.451-14.001-13.223-14.001-23.043 0-14.336 11.664-26 26-26s26 11.664 26 26c0 9.82-5.41 18.592-14 23.043v35.057c1.191.423 2.352.907 3.482 1.448l24.791-24.793c-2.922-9.221-.551-19.248 6.395-26.193 4.902-4.904 11.434-7.605 18.387-7.605s13.48 2.701 18.383 7.605c4.906 4.902 7.605 11.432 7.605 18.383s-2.699 13.48-7.605 18.385c-6.941 6.941-16.965 9.324-26.191 6.395l-24.795 24.793c.542 1.131 1.025 2.291 1.448 3.482h35.058c4.453-8.588 13.223-14 23.043-14 14.335 0 25.999 11.664 25.999 26zm-95.556-28.1c2.088 1.672 3.984 3.567 5.656 5.656l25.306-25.306c1.16-1.162 2.918-1.496 4.43-.838 6.738 2.943 14.762 1.441 19.945-3.738 3.395-3.395 5.262-7.914 5.262-12.729s-1.867-9.334-5.262-12.727c-3.391-3.393-7.91-5.262-12.727-5.262s-9.336 1.869-12.73 5.262c-5.262 5.264-6.727 13.094-3.738 19.947.66 1.508.328 3.264-.836 4.428zm-26.444-43.429v35.765c1.315-.146 2.646-.236 4-.236s2.685.09 4 .236v-35.765c0-1.645 1.008-3.123 2.539-3.725 6.961-2.73 11.461-9.305 11.461-16.746 0-9.926-8.074-18-18-18s-18 8.074-18 18c0 7.441 4.5 14.016 11.461 16.746 1.531.602 2.539 2.08 2.539 3.725zm-24.1 49.085c1.672-2.089 3.568-3.984 5.656-5.656l-25.306-25.306c-1.164-1.164-1.496-2.92-.84-4.428 2.992-6.854 1.527-14.684-3.734-19.947-3.395-3.393-7.914-5.262-12.73-5.262s-9.336 1.869-12.727 5.262c-3.395 3.393-5.262 7.912-5.262 12.727s1.867 9.334 5.262 12.729c5.184 5.186 13.203 6.682 19.945 3.738 1.508-.656 3.266-.324 4.43.838zm-7.664 26.444c-.146-1.315-.236-2.646-.236-4s.09-2.685.236-4h-35.763c-1.645 0-3.121-1.008-3.723-2.539-2.734-6.963-9.309-11.461-16.75-11.461-9.926 0-18 8.074-18 18s8.074 18 18 18c7.441 0 14.016-4.498 16.75-11.461.602-1.531 2.078-2.539 3.723-2.539zm13.32 24.1c-2.089-1.672-3.986-3.569-5.658-5.658l-25.304 25.308c-1.164 1.16-2.926 1.494-4.43.838-6.746-2.949-14.766-1.445-19.945 3.738-3.395 3.393-5.262 7.912-5.262 12.729 0 4.814 1.867 9.334 5.262 12.727 3.391 3.393 7.91 5.262 12.727 5.262s9.336-1.869 12.73-5.262c5.262-5.264 6.727-13.092 3.734-19.947-.656-1.508-.324-3.264.84-4.428zm26.444 43.427v-35.763c-1.315.146-2.646.236-4 .236s-2.685-.09-4-.236v35.763c0 1.645-1.008 3.123-2.539 3.723-6.961 2.734-11.461 9.309-11.461 16.75 0 9.926 8.074 18 18 18s18-8.074 18-18c0-7.441-4.5-14.016-11.461-16.75-1.531-.6-2.539-2.078-2.539-3.723zm24.102-49.085c-1.672 2.09-3.568 3.986-5.658 5.658l25.306 25.306c1.164 1.164 1.496 2.92.836 4.428-2.988 6.855-1.523 14.684 3.738 19.947 3.395 3.393 7.914 5.262 12.73 5.262s9.336-1.869 12.727-5.262c3.395-3.393 5.262-7.912 5.262-12.727 0-4.816-1.867-9.336-5.262-12.729-5.188-5.186-13.211-6.686-19.945-3.738-1.512.658-3.266.326-4.43-.838zm81.898-22.442c0-9.926-8.074-18-18-18-7.441 0-14.016 4.498-16.75 11.461-.602 1.531-2.078 2.539-3.723 2.539h-35.764c.146 1.315.236 2.646.236 4s-.09 2.685-.236 4h35.764c1.645 0 3.121 1.008 3.723 2.539 2.734 6.963 9.309 11.461 16.75 11.461 9.926 0 18-8.074 18-18zm-54.844-55.154c-2.645-2.641-4.098-6.158-4.098-9.9s1.457-7.258 4.098-9.898c5.285-5.279 14.52-5.283 19.797 0 5.457 5.461 5.457 14.342 0 19.799-2.641 2.641-6.156 4.096-9.898 4.096-3.743 0-7.258-1.455-9.899-4.097zm3.903-9.899c0 1.604.621 3.111 1.754 4.24 2.258 2.266 6.227 2.264 8.484.002 2.34-2.34 2.34-6.146 0-8.486-1.129-1.131-2.637-1.752-4.242-1.752s-3.113.621-4.242 1.752-1.754 2.639-1.754 4.244zm-114.215-9.9c2.641 2.641 4.098 6.156 4.098 9.898s-1.453 7.258-4.098 9.9v.002c-2.641 2.641-6.156 4.094-9.898 4.094s-7.258-1.455-9.898-4.096c-5.457-5.457-5.457-14.338 0-19.799 2.641-2.641 6.156-4.096 9.898-4.096s7.257 1.456 9.898 4.097zm-3.903 9.9c0-1.605-.625-3.113-1.754-4.244s-2.637-1.752-4.242-1.752-3.113.621-4.242 1.752c-2.34 2.34-2.34 6.146 0 8.486 1.129 1.131 2.637 1.752 4.242 1.752s3.113-.621 4.242-1.752c0 0 0 0 0-.002 1.133-1.128 1.754-2.636 1.754-4.24zm-18.941 65.053c0 7.719-6.281 14-14 14s-14-6.281-14-14 6.281-14 14-14 14 6.281 14 14zm-8 0c0-3.309-2.691-6-6-6s-6 2.691-6 6 2.691 6 6 6 6-2.691 6-6zm30.844 55.154c2.645 2.641 4.098 6.158 4.098 9.9s-1.457 7.258-4.098 9.898-6.156 4.096-9.898 4.096c-3.742.002-7.258-1.453-9.898-4.096-5.457-5.461-5.457-14.342 0-19.799 5.284-5.278 14.518-5.282 19.796.001zm-3.903 9.899c0-1.604-.621-3.111-1.754-4.24-1.129-1.133-2.637-1.754-4.242-1.754s-3.113.621-4.242 1.752c-2.34 2.34-2.34 6.146 0 8.486 2.258 2.262 6.227 2.262 8.484 0 1.129-1.131 1.754-2.639 1.754-4.244zm114.215 9.9c-2.641-2.641-4.098-6.156-4.098-9.898s1.453-7.258 4.098-9.9c0 0 0 0 0-.002 2.641-2.641 6.156-4.094 9.898-4.094s7.258 1.455 9.898 4.096c5.457 5.457 5.457 14.338 0 19.799-2.641 2.641-6.156 4.096-9.898 4.096s-7.257-1.456-9.898-4.097zm3.903-9.9c0 1.605.625 3.113 1.754 4.244s2.637 1.752 4.242 1.752 3.113-.621 4.242-1.752c2.34-2.34 2.34-6.146 0-8.486-1.129-1.131-2.637-1.752-4.242-1.752s-3.113.621-4.242 1.752v.002c-1.133 1.128-1.754 2.636-1.754 4.24zm-59.059-143.053c-7.719 0-14-6.281-14-14s6.281-14 14-14 14 6.281 14 14-6.281 14-14 14zm0-8c3.309 0 6-2.691 6-6s-2.691-6-6-6-6 2.691-6 6 2.691 6 6 6zm0 164c7.719 0 14 6.281 14 14s-6.281 14-14 14-14-6.281-14-14 6.281-14 14-14zm0 8c-3.309 0-6 2.691-6 6s2.691 6 6 6 6-2.691 6-6-2.691-6-6-6zm106-86c0 7.719-6.281 14-14 14s-14-6.281-14-14 6.281-14 14-14 14 6.281 14 14zm-8 0c0-3.309-2.691-6-6-6s-6 2.691-6 6 2.691 6 6 6 6-2.691 6-6z" fill="url(#SVGID_1_)" data-original="url(#SVGID_1_)" style=""></path></g></g></svg>