<svg id="SvgjsSvg1020" width="100%" height="100%" xmlns="http://www.w3.org/2000/svg" version="1.1" xlink="http://www.w3.org/1999/xlink" xmlns:svgjs="http://svgjs.com/svgjs" preserveAspectRatio="xMidYMid meet" viewBox="0 0 300 42.29051208496094" overflow="visible"><defs id="SvgjsDefs1021"><linearGradient id="SvgjsLinearGradientbBxB3q0Mug" gradientUnits="userSpaceOnUse" x1="-2.8421709430404e-14" y1="267.6000061035157" x2="267.6000061035156" y2="-2.8421709430404e-14"><stop id="SvgjsStop1024" stop-color="#66abfa" offset="0.05"></stop><stop id="SvgjsStop1025" stop-color="#0769da" offset="0.95"></stop></linearGradient></defs><g id="SvgjsG1022" transform="scale(0.40038735356119326)" opacity="1"><g id="SvgjsG1026" class="LjwqQq5Au" transform="translate(0, 0) scale(0.39470851117672057)" light-content="false" non-strokable="false" fill="url(#SvgjsLinearGradientbBxB3q0Mug)"><path d="M219.6 48.1c-22.9-22.9-53.4-35.5-85.8-35.5S71 25.2 48.1 48.1s-35.5 53.4-35.5 85.8 12.6 62.9 35.5 85.8 53.4 35.5 85.8 35.5 62.9-12.6 85.8-35.5 35.5-53.4 35.5-85.8-12.7-62.9-35.6-85.8z"></path><path d="M133.8 0C59.9 0 0 59.9 0 133.8s59.9 133.8 133.8 133.8 133.8-59.9 133.8-133.8S207.8 0 133.8 0zm0 260.1c-69.7 0-126.3-56.5-126.3-126.3S64.1 7.6 133.8 7.6s126.3 56.5 126.3 126.3-56.5 126.2-126.3 126.2z"></path></g><g id="SvgjsG1027" class="MtiZos1diw" transform="translate(20.440960583556897, 20.44031784043199) scale(0.6474207636317199)" light-content="true" non-strokable="false" fill="#ffffff"><path d="M50.413 73.269c-5.581-1.231-9.3-3.478-11.079-5.741-.529-.672-.866-1.338-1.052-1.984-.109-.381-.177-.756-.166-1.115.026-.759.352-1.582 1.036-2.391 1.031-1.225 2.896-2.421 5.823-3.36-2.224-.545-4.183-1.203-5.9-1.947-1.992 1.212-3.236 2.546-3.994 3.8-.888 1.479-1.122 2.843-1.153 3.752-.052 1.512.354 2.986 1.144 4.383.333.589.727 1.164 1.194 1.723 2.625 3.121 7.299 5.664 13.245 6.977 3.708.816 5.377 2.481 5.391 3.769.005.528-.28 1.127-.855 1.713-.429.437-1.022.865-1.794 1.255-.051.023-.104.049-.158.072v-3.597c-.569-.383-1.523-.833-3.034-1.166-.396-.089-.771-.195-1.156-.293v5.032c-1.892-.914-2.775-2.073-2.766-3.017.007-.722.553-1.554 1.661-2.294a33.151 33.151 0 0 1-4.414-1.6c-.993 1.262-1.427 2.623-1.439 3.854-.026 2.616 1.835 5.839 6.958 7.571.529.181 1.081.346 1.681.491h.866a18.694 18.694 0 0 0 1.643-.478c1.192-.398 2.21-.881 3.067-1.417.636-.398 1.197-.83 1.665-1.277 1.619-1.552 2.279-3.33 2.266-4.891-.027-2.863-2.322-6.419-8.68-7.824z"></path><path d="M52.094 70.417v-10.37a34.285 34.285 0 0 0-2.638-.486 79.523 79.523 0 0 1-1.552-.26v11.1c.684.229 1.403.434 2.144.619l.454-.121c.56-.148 1.084-.313 1.592-.482zM95 23.954v-4.19c-13.931 0-29.627-7.935-29.784-8.016l-1.767-.902-.997 1.718c-2.574 4.44-7.347 7.2-12.452 7.2-5.11 0-9.88-2.759-12.452-7.2l-.997-1.718-1.769.902c-.159.081-15.851 8.016-29.782 8.016v4.19c12.318 0 25.387-5.514 29.988-7.652a18.653 18.653 0 0 0 2.157 2.465c-3.334 1.987-9.767 5.261-16.002 5.261v4.19c8.373 0 16.609-4.802 19.608-6.752a18.588 18.588 0 0 0 7.151 2.365v26.907c.942.216 1.88.395 2.793.531.48.071.945.148 1.398.229V23.831a18.564 18.564 0 0 0 7.153-2.365c2.996 1.95 11.234 6.752 19.607 6.752v-4.19c-6.237 0-12.67-3.276-15.999-5.264a18.933 18.933 0 0 0 2.156-2.462c4.602 2.137 17.671 7.652 29.99 7.652z"></path><path d="M64.295 30.441c-.38-.139-3.791-1.298-6.432.232-.958.556-2.176 1.681-2.562 3.902l4.132.716c.13-.756.42-.927.528-.99.683-.401 2.143-.188 2.839.053 2.993 1.208 4.688 4.044 4.312 7.23-.442 3.749-3.914 8.152-12.032 10.562 2.405.619 4.376 1.384 5.985 2.237 8.447-4.03 9.947-10.103 10.207-12.31.594-5.037-2.179-9.702-6.977-11.632z"></path><path d="M50.386 53.342c-12.064-1.805-16.931-7.258-17.459-11.756-.376-3.184 1.314-6.024 4.228-7.2a6.057 6.057 0 0 1 1.831-.306c.426 0 .82.062 1.087.22.111.065.401.236.532.99l4.128-.717c-.385-2.217-1.604-3.346-2.559-3.898-1.021-.593-2.159-.784-3.196-.784-1.641 0-3.029.476-3.308.578-4.725 1.904-7.5 6.566-6.907 11.607.343 2.931 2.878 12.698 21.001 15.411 8.83 1.319 12.069 4.452 12.155 6.938.086 2.472-2.701 5.598-8.204 7.647 1.844.7 3.3 1.6 4.413 2.61 5.087-2.624 8.115-6.395 7.979-10.401-.085-2.594-1.798-8.857-15.721-10.939z"></path></g><g id="SvgjsG1028" class="text" transform="translate(443.1248544921875, 73.8169983215332) scale(1)" light-content="false" fill="#000000"><path d="M-301.3 -3.13C-299.39 -1.69 -297.37 -0.64 -295.24 0.01C-293.11 0.67 -290.35 1 -286.95 1C-284.64 1 -282.28 0.7 -279.84 0.1C-277.41 -0.49 -275.2 -1.81 -273.21 -3.85C-271.22 -5.89 -270.22 -8.48 -270.22 -11.6C-270.22 -13.71 -270.56 -15.53 -271.23 -17.05C-271.9 -18.57 -272.76 -19.78 -273.79 -20.65C-274.83 -21.53 -276.32 -22.41 -278.28 -23.29C-279.68 -23.92 -281.22 -24.49 -282.88 -25C-284.54 -25.52 -286.42 -26.12 -288.53 -26.81C-289.21 -27.02 -289.89 -27.29 -290.55 -27.61C-291.22 -27.93 -291.82 -28.42 -292.37 -29.08C-292.92 -29.73 -293.19 -30.59 -293.19 -31.64C-293.19 -32.73 -292.82 -33.65 -292.08 -34.39C-291.33 -35.14 -290.48 -35.61 -289.51 -35.8C-288.54 -36 -287.49 -36.09 -286.33 -36.09C-284.71 -36.09 -283.15 -35.73 -281.66 -35.01C-280.17 -34.29 -278.99 -33.63 -278.13 -33.05C-276.78 -32.13 -275.71 -32.22 -274.91 -33.31L-272.53 -36.5C-271.91 -37.34 -272.21 -38.28 -273.44 -39.32C-274.69 -40.37 -276.54 -41.25 -278.99 -41.95C-281.45 -42.66 -283.82 -43.01 -286.13 -43.01C-288.45 -43.01 -290.76 -42.73 -293.04 -42.19C-295.33 -41.64 -297.35 -40.4 -299.11 -38.47C-300.86 -36.53 -301.74 -34.21 -301.74 -31.49C-301.74 -29.21 -301.37 -27.38 -300.63 -26.02C-299.89 -24.65 -298.84 -23.42 -297.5 -22.32C-296.15 -21.23 -294.66 -20.37 -293.04 -19.75C-291.23 -19.04 -289.38 -18.44 -287.52 -17.94C-285.65 -17.45 -284.11 -16.94 -282.88 -16.44C-282.17 -16.14 -281.49 -15.78 -280.83 -15.35C-280.16 -14.92 -279.68 -14.37 -279.39 -13.71C-279.1 -13.05 -278.95 -12.28 -278.95 -11.4C-278.95 -10.17 -279.28 -9.1 -279.95 -8.2C-280.61 -7.3 -281.58 -6.7 -282.85 -6.39C-284.12 -6.07 -285.43 -5.92 -286.8 -5.92C-288.75 -5.92 -290.62 -6.32 -292.38 -7.13C-294.15 -7.94 -295.58 -8.73 -296.67 -9.49C-298.1 -10.49 -299.18 -10.43 -299.93 -9.32L-302.18 -5.92C-302.81 -4.98 -302.51 -4.05 -301.3 -3.13Z M-261.43 0L-256.98 0C-255.61 0 -254.93 -0.73 -254.93 -2.2L-254.93 -15.7L-250.47 -15.7C-243.44 -15.7 -238.56 -16.85 -235.84 -19.13C-233.12 -21.42 -231.75 -24.66 -231.75 -28.86C-231.75 -33.06 -233.12 -36.3 -235.84 -38.58C-238.56 -40.87 -243.44 -42.01 -250.47 -42.01L-261.43 -42.01C-262.8 -42.01 -263.48 -41.28 -263.48 -39.81L-263.48 -2.2C-263.48 -0.73 -262.8 0 -261.43 0ZM-254.93 -22.85L-254.93 -34.86L-250.5 -34.86C-246.6 -34.86 -243.94 -34.4 -242.53 -33.47C-241.13 -32.54 -240.42 -31.01 -240.42 -28.86C-240.42 -26.71 -241.13 -25.17 -242.53 -24.24C-243.94 -23.32 -246.6 -22.85 -250.5 -22.85Z M-222.52 0L-218.07 0C-216.7 0 -216.02 -0.73 -216.02 -2.2L-216.02 -39.81C-216.02 -41.28 -216.7 -42.01 -218.07 -42.01L-222.52 -42.01C-223.89 -42.01 -224.58 -41.28 -224.58 -39.81L-224.58 -2.2C-224.58 -0.73 -223.89 0 -222.52 0Z M-208.14 -34.51L-197.36 -34.51L-197.36 -1.61C-197.36 -0.54 -196.87 0 -195.89 0L-190.27 0C-189.29 0 -188.8 -0.54 -188.8 -1.61L-188.8 -34.51L-178.02 -34.51C-176.56 -34.51 -175.83 -35.15 -175.83 -36.42L-175.83 -40.11C-175.83 -41.38 -176.56 -42.01 -178.02 -42.01L-208.14 -42.01C-209.6 -42.01 -210.34 -41.38 -210.34 -40.11L-210.34 -36.42C-210.34 -35.15 -209.6 -34.51 -208.14 -34.51Z M-176.53 0L-171.87 0C-170.58 0 -169.68 -0.67 -169.17 -2.02L-166.19 -9.9L-151.3 -9.9L-148.32 -2.02C-147.81 -0.67 -146.91 0 -145.62 0L-140.96 0C-139.56 0 -139.1 -0.64 -139.58 -1.93L-153.94 -39.64C-154.55 -41.22 -155.46 -42.01 -156.69 -42.01L-160.8 -42.01C-162.03 -42.01 -162.94 -41.22 -163.55 -39.64L-177.91 -1.93C-178.39 -0.64 -177.93 0 -176.53 0ZM-163.46 -17.17L-159.86 -26.48C-159.43 -27.58 -159.17 -28.37 -159.08 -28.87C-158.99 -29.37 -158.9 -30.11 -158.8 -31.08L-158.69 -31.08C-158.59 -30.11 -158.5 -29.37 -158.41 -28.87C-158.32 -28.37 -158.06 -27.58 -157.63 -26.48L-154.03 -17.17Z M-132.32 0L-108.74 0C-107.27 0 -106.54 -0.63 -106.54 -1.9L-106.54 -5.36C-106.54 -6.63 -107.27 -7.27 -108.74 -7.27L-125.82 -7.27L-125.82 -39.81C-125.82 -41.28 -126.4 -42.01 -127.57 -42.01L-132.32 -42.01C-133.69 -42.01 -134.37 -41.28 -134.37 -39.81L-134.37 -2.2C-134.37 -0.73 -133.69 0 -132.32 0Z M-100.33 -17.49C-100.33 -10.65 -98.88 -5.86 -95.99 -3.12C-93.1 -0.38 -89.17 1 -84.18 1C-79.2 1 -75.27 -0.38 -72.38 -3.12C-69.49 -5.86 -68.04 -10.65 -68.04 -17.49L-68.04 -40.4C-68.04 -41.47 -68.73 -42.01 -70.09 -42.01L-74.55 -42.01C-75.91 -42.01 -76.6 -41.47 -76.6 -40.4L-76.6 -17.78C-76.6 -12.51 -77.37 -9.21 -78.93 -7.9C-80.48 -6.58 -82.23 -5.92 -84.18 -5.92C-86.14 -5.92 -87.89 -6.58 -89.44 -7.9C-91 -9.21 -91.77 -12.51 -91.77 -17.78L-91.77 -40.4C-91.77 -41.47 -92.46 -42.01 -93.82 -42.01L-98.28 -42.01C-99.64 -42.01 -100.33 -41.47 -100.33 -40.4Z M-56.62 0L-33.03 0C-31.57 0 -30.83 -0.63 -30.83 -1.9L-30.83 -5.36C-30.83 -6.63 -31.57 -7.27 -33.03 -7.27L-50.11 -7.27L-50.11 -39.81C-50.11 -41.28 -50.7 -42.01 -51.87 -42.01L-56.62 -42.01C-57.98 -42.01 -58.67 -41.28 -58.67 -39.81L-58.67 -2.2C-58.67 -0.73 -57.98 0 -56.62 0Z M-2.07 0L2.39 0C3.75 0 4.44 -0.73 4.44 -2.2L4.44 -26.4C4.44 -27.57 4.39 -28.74 4.29 -29.91L4.5 -29.91L12.96 -2.37C13.45 -0.79 14.29 0 15.48 0L20.46 0C21.66 0 22.5 -0.79 22.98 -2.37L31.45 -29.91L31.66 -29.91C31.56 -28.74 31.51 -27.57 31.51 -26.4L31.51 -2.2C31.51 -0.73 32.19 0 33.56 0L38.01 0C39.38 0 40.06 -0.73 40.06 -2.2L40.06 -39.81C40.06 -41.28 39.38 -42.01 38.01 -42.01L29.52 -42.01C28.38 -42.01 27.57 -41.23 27.08 -39.67L19.15 -13.97C18.79 -12.86 18.55 -11.95 18.41 -11.24C18.28 -10.52 18.16 -9.68 18.06 -8.7L17.89 -8.7C17.79 -9.68 17.67 -10.52 17.53 -11.24C17.4 -11.95 17.15 -12.86 16.8 -13.97L8.86 -39.67C8.37 -41.23 7.56 -42.01 6.43 -42.01L-2.07 -42.01C-3.43 -42.01 -4.12 -41.28 -4.12 -39.81L-4.12 -2.2C-4.12 -0.73 -3.43 0 -2.07 0Z M48.12 0L52.78 0C54.07 0 54.97 -0.67 55.47 -2.02L58.46 -9.9L73.34 -9.9L76.33 -2.02C76.84 -0.67 77.74 0 79.03 0L83.69 0C85.09 0 85.55 -0.64 85.06 -1.93L70.71 -39.64C70.1 -41.22 69.18 -42.01 67.95 -42.01L63.85 -42.01C62.62 -42.01 61.7 -41.22 61.1 -39.64L46.74 -1.93C46.25 -0.64 46.71 0 48.12 0ZM61.19 -17.17L64.79 -26.48C65.22 -27.58 65.48 -28.37 65.57 -28.87C65.65 -29.37 65.75 -30.11 65.84 -31.08L65.96 -31.08C66.06 -30.11 66.15 -29.37 66.24 -28.87C66.33 -28.37 66.59 -27.58 67.02 -26.48L70.62 -17.17Z M92.33 0L96.78 0C98.15 0 98.83 -0.73 98.83 -2.2L98.83 -22.97C98.83 -24.14 98.78 -25.31 98.69 -26.48L98.89 -26.48L114.13 -2.05C114.99 -0.68 116.25 0 117.93 0L121.98 0C123.34 0 124.03 -0.73 124.03 -2.2L124.03 -39.81C124.03 -41.28 123.34 -42.01 121.98 -42.01L117.52 -42.01C116.16 -42.01 115.47 -41.28 115.47 -39.81L115.47 -19.48C115.47 -18.31 115.52 -17.14 115.62 -15.97L115.42 -15.97L100.47 -39.96C99.61 -41.33 98.34 -42.01 96.67 -42.01L92.33 -42.01C90.96 -42.01 90.28 -41.28 90.28 -39.81L90.28 -2.2C90.28 -0.73 90.96 0 92.33 0Z M131.24 -21.01C131.24 -14.27 133.02 -8.92 136.58 -4.95C140.15 -0.99 145.1 1 151.45 1C155.22 1 158.5 0.6 161.28 -0.21C164.06 -1.01 166.82 -2.41 169.56 -4.42L169.56 -19.31C169.56 -20.58 168.82 -21.21 167.36 -21.21L154.64 -21.21C153.18 -21.21 152.45 -20.58 152.45 -19.31L152.45 -15.85C152.45 -14.58 153.18 -13.95 154.64 -13.95L161 -13.95L161 -8.7C159.71 -7.65 158.34 -6.92 156.9 -6.52C155.45 -6.12 153.74 -5.92 151.74 -5.92C147.64 -5.92 144.72 -7.21 142.98 -9.8C141.25 -12.39 140.38 -16.12 140.38 -21.01C140.38 -25.89 141.25 -29.62 142.98 -32.21C144.72 -34.8 147.64 -36.09 151.74 -36.09C153.44 -36.09 155 -35.76 156.4 -35.1C157.81 -34.43 158.97 -33.6 159.89 -32.61C161 -31.4 162.05 -31.11 163.02 -31.76L166.36 -33.93C167.44 -34.63 167.47 -35.62 166.45 -36.88C164.77 -38.97 162.82 -40.52 160.61 -41.51C158.39 -42.51 155.34 -43.01 151.45 -43.01C145 -43.01 140.02 -41.03 136.51 -37.06C132.99 -33.1 131.24 -27.74 131.24 -21.01Z M176.21 0L180.86 0C182.15 0 183.05 -0.67 183.56 -2.02L186.55 -9.9L201.43 -9.9L204.42 -2.02C204.93 -0.67 205.83 0 207.11 0L211.77 0C213.18 0 213.64 -0.64 213.15 -1.93L198.79 -39.64C198.19 -41.22 197.27 -42.01 196.04 -42.01L191.94 -42.01C190.71 -42.01 189.79 -41.22 189.18 -39.64L174.83 -1.93C174.34 -0.64 174.8 0 176.21 0ZM189.27 -17.17L192.88 -26.48C193.31 -27.58 193.56 -28.37 193.65 -28.87C193.74 -29.37 193.83 -30.11 193.93 -31.08L194.05 -31.08C194.15 -30.11 194.24 -29.37 194.33 -28.87C194.41 -28.37 194.67 -27.58 195.1 -26.48L198.71 -17.17Z M220.42 0L244 0C245.46 0 246.2 -0.63 246.2 -1.9L246.2 -5.36C246.2 -6.63 245.46 -7.27 244 -7.27L226.92 -7.27L226.92 -39.81C226.92 -41.28 226.33 -42.01 225.16 -42.01L220.42 -42.01C219.05 -42.01 218.36 -41.28 218.36 -39.81L218.36 -2.2C218.36 -0.73 219.05 0 220.42 0Z M254.46 0L258.91 0C260.28 0 260.96 -0.73 260.96 -2.2L260.96 -39.81C260.96 -41.28 260.28 -42.01 258.91 -42.01L254.46 -42.01C253.09 -42.01 252.41 -41.28 252.41 -39.81L252.41 -2.2C252.41 -0.73 253.09 0 254.46 0Z M269.02 0L273.68 0C274.97 0 275.86 -0.67 276.37 -2.02L279.36 -9.9L294.24 -9.9L297.23 -2.02C297.74 -0.67 298.64 0 299.93 0L304.58 0C305.99 0 306.45 -0.64 305.96 -1.93L291.61 -39.64C291 -41.22 290.08 -42.01 288.85 -42.01L284.75 -42.01C283.52 -42.01 282.6 -41.22 282 -39.64L267.64 -1.93C267.15 -0.64 267.61 0 269.02 0ZM282.08 -17.17L285.69 -26.48C286.12 -27.58 286.38 -28.37 286.46 -28.87C286.55 -29.37 286.65 -30.11 286.74 -31.08L286.86 -31.08C286.96 -30.11 287.05 -29.37 287.14 -28.87C287.23 -28.37 287.49 -27.58 287.92 -26.48L291.52 -17.17Z"></path></g></g></svg>